<svg width="63" height="63" viewBox="0 0 63 63" fill="none" xmlns="http://www.w3.org/2000/svg">
<path d="M62.6445 32.6349C62.3662 33.5386 61.8789 34.3639 61.2223 35.0443C60.5656 35.7246 59.758 36.2407 58.8648 36.5508C58.2498 36.7525 57.606 36.8525 56.9589 36.8471C56.3342 36.8471 56.1581 37.1194 56.1581 37.696C56.1581 43.3016 56.1581 48.9792 56.1581 54.6168C56.28 56.4951 55.6847 58.3496 54.4924 59.806C53.8939 60.5365 53.1414 61.1257 52.2886 61.5313C51.4358 61.9369 50.5038 62.149 49.5595 62.1524C46.2842 62.1524 43.009 62.1524 39.7337 62.1524C39.4402 62.1969 39.1404 62.1719 38.8583 62.0796C38.5762 61.9872 38.3198 61.8299 38.1095 61.6204C37.8992 61.4109 37.741 61.155 37.6476 60.8733C37.5542 60.5916 37.5281 60.2918 37.5715 59.9982C37.5715 55.2895 37.5715 50.5808 37.5715 45.8721C37.6161 45.2605 37.4708 44.65 37.1555 44.124C36.8402 43.598 36.3702 43.1822 35.8098 42.9332C35.4374 42.7777 35.036 42.704 34.6326 42.717C32.7107 42.717 30.7888 42.717 28.8669 42.717C28.4609 42.7007 28.056 42.7695 27.6782 42.9189C27.3004 43.0684 26.9579 43.2951 26.6729 43.5847C26.3879 43.8742 26.1665 44.2202 26.0231 44.6003C25.8796 44.9805 25.8172 45.3864 25.8399 45.792C25.8399 50.4847 25.8399 55.1774 25.8399 59.8701C25.8399 61.4717 25.1752 62.1524 23.5656 62.1524C20.4345 62.1524 17.2953 62.1043 14.1642 62.1524C12.4149 62.1757 10.7242 61.5222 9.44532 60.3284C8.16644 59.1346 7.39831 57.4928 7.30139 55.746C7.26135 54.4086 7.26135 53.0793 7.25334 51.742C7.25334 47.1374 7.25334 42.5248 7.25334 37.9202C7.25334 36.8792 7.25334 36.8551 6.14824 36.7831C5.36783 36.7573 4.60142 36.5687 3.89813 36.2295C3.19484 35.8902 2.57017 35.4078 2.06417 34.8131C1.08089 33.6852 0.574613 32.2192 0.652318 30.7249C0.730022 29.2306 1.38562 27.825 2.48059 26.8051C3.97007 25.2916 5.47557 23.7941 6.98107 22.2966L27.1291 2.09251C27.5749 1.64129 28.0512 1.22122 28.5546 0.83526C30.1562 -0.34992 33.9119 -0.341912 35.4574 1.29972C35.7537 1.61203 36.0901 1.8763 36.3864 2.17259C44.3943 10.1806 52.4023 18.1885 60.4103 26.1965C61.4062 27.0876 62.1726 28.2056 62.6445 29.4558V32.6349ZM10.9851 45.1995C10.9851 48.5148 10.9851 51.8301 10.9851 55.1454C10.9493 55.5828 11.0086 56.0229 11.1588 56.4353C11.3091 56.8477 11.5468 57.2227 11.8557 57.5346C12.1645 57.8465 12.5372 58.0879 12.9481 58.2422C13.3591 58.3965 13.7985 58.4601 14.2363 58.4286C16.5746 58.4286 18.921 58.4286 21.2673 58.4286C21.8439 58.4286 21.988 58.2365 21.988 57.6999C21.988 54.2805 21.988 50.8611 21.988 47.4497C21.988 46.6489 21.988 45.792 22.0601 44.9672C22.227 43.3585 22.9651 41.863 24.1406 40.7522C25.3161 39.6414 26.8509 38.9889 28.4665 38.9132C30.5886 38.8651 32.7107 38.8571 34.8328 38.9132C35.7479 38.9324 36.6487 39.1442 37.4766 39.5346C38.3044 39.9251 39.0407 40.4855 39.6376 41.1795C40.85 42.5486 41.4869 44.333 41.4154 46.1604C41.4154 50.0283 41.4154 53.8881 41.4154 57.748C41.4154 58.2685 41.5675 58.4527 42.1041 58.4447C44.3703 58.4447 46.6366 58.4447 48.9028 58.4447C51.1691 58.4447 52.4183 57.2595 52.4183 54.9372V35.1575C52.3866 34.8781 52.4182 34.5952 52.5107 34.3296C52.6032 34.0641 52.7542 33.8228 52.9527 33.6236C53.1511 33.4244 53.3918 33.2725 53.657 33.1789C53.9221 33.0854 54.2049 33.0528 54.4844 33.0834C55.2852 33.0834 56.086 33.0834 56.8868 33.0834C57.3126 33.1147 57.7376 33.0117 58.1018 32.789C58.4661 32.5662 58.7514 32.2349 58.9176 31.8415C59.0837 31.4482 59.1224 31.0127 59.0282 30.5962C58.934 30.1798 58.7116 29.8033 58.3923 29.5198L55.7817 26.9012L33.3433 4.51893C32.2943 3.46989 31.1812 3.41383 30.2122 4.38279C21.8145 12.7698 13.4222 21.1595 5.03513 29.5519C4.71598 29.8233 4.49293 30.1904 4.39915 30.5987C4.30537 31.007 4.34587 31.4347 4.51461 31.8181C4.66996 32.2076 4.94366 32.5384 5.29711 32.764C5.65056 32.9896 6.06592 33.0985 6.48458 33.0754C7.28538 33.0754 8.02211 33.0754 8.79088 33.0754C10.3124 33.0754 11.0011 33.7641 11.0011 35.3096L10.9851 45.1995Z" fill="#0B3263"/>
</svg>
